<svg width="22" height="22" viewBox="0 0 22 22" fill="none" xmlns="http://www.w3.org/2000/svg">
<path d="M2.15994 5.03999C2.06453 5.03864 1.96981 5.05627 1.88127 5.09184C1.79273 5.12742 1.71215 5.18024 1.6442 5.24723C1.57626 5.31423 1.5223 5.39405 1.48548 5.48208C1.44865 5.5701 1.42969 5.66457 1.42969 5.75999C1.42969 5.85541 1.44865 5.94987 1.48548 6.0379C1.5223 6.12592 1.57626 6.20575 1.6442 6.27274C1.71215 6.33974 1.79273 6.39256 1.88127 6.42813C1.96981 6.46371 2.06453 6.48134 2.15994 6.47999H19.4399C19.5354 6.48134 19.6301 6.46371 19.7186 6.42813C19.8071 6.39256 19.8877 6.33974 19.9557 6.27274C20.0236 6.20575 20.0776 6.12592 20.1144 6.0379C20.1512 5.94987 20.1702 5.85541 20.1702 5.75999C20.1702 5.66457 20.1512 5.5701 20.1144 5.48208C20.0776 5.39405 20.0236 5.31423 19.9557 5.24723C19.8877 5.18024 19.8071 5.12742 19.7186 5.09184C19.6301 5.05627 19.5354 5.03864 19.4399 5.03999H2.15994ZM2.15994 10.08C2.06453 10.0786 1.96981 10.0963 1.88127 10.1318C1.79273 10.1674 1.71215 10.2202 1.6442 10.2872C1.57626 10.3542 1.5223 10.4341 1.48548 10.5221C1.44865 10.6101 1.42969 10.7046 1.42969 10.8C1.42969 10.8954 1.44865 10.9899 1.48548 11.0779C1.5223 11.1659 1.57626 11.2458 1.6442 11.3127C1.71215 11.3797 1.79273 11.4326 1.88127 11.4681C1.96981 11.5037 2.06453 11.5213 2.15994 11.52H19.4399C19.5354 11.5213 19.6301 11.5037 19.7186 11.4681C19.8071 11.4326 19.8877 11.3797 19.9557 11.3127C20.0236 11.2458 20.0776 11.1659 20.1144 11.0779C20.1512 10.9899 20.1702 10.8954 20.1702 10.8C20.1702 10.7046 20.1512 10.6101 20.1144 10.5221C20.0776 10.4341 20.0236 10.3542 19.9557 10.2872C19.8877 10.2202 19.8071 10.1674 19.7186 10.1318C19.6301 10.0963 19.5354 10.0786 19.4399 10.08H2.15994ZM2.15994 15.12C2.06453 15.1186 1.96981 15.1363 1.88127 15.1718C1.79273 15.2074 1.71215 15.2602 1.6442 15.3272C1.57626 15.3942 1.5223 15.4741 1.48548 15.5621C1.44865 15.6501 1.42969 15.7446 1.42969 15.84C1.42969 15.9354 1.44865 16.0299 1.48548 16.1179C1.5223 16.2059 1.57626 16.2858 1.6442 16.3527C1.71215 16.4197 1.79273 16.4726 1.88127 16.5081C1.96981 16.5437 2.06453 16.5613 2.15994 16.56H19.4399C19.5354 16.5613 19.6301 16.5437 19.7186 16.5081C19.8071 16.4726 19.8877 16.4197 19.9557 16.3527C20.0236 16.2858 20.0776 16.2059 20.1144 16.1179C20.1512 16.0299 20.1702 15.9354 20.1702 15.84C20.1702 15.7446 20.1512 15.6501 20.1144 15.5621C20.0776 15.4741 20.0236 15.3942 19.9557 15.3272C19.8877 15.2602 19.8071 15.2074 19.7186 15.1718C19.6301 15.1363 19.5354 15.1186 19.4399 15.12H2.15994Z" fill="black"/>
</svg>
