<svg width="325" height="135" viewBox="0 0 325 135" fill="none" xmlns="http://www.w3.org/2000/svg">
<g clip-path="url(#clip0_550_281)">
<path d="M115.207 36.8599L124.169 58.7926H124.639L133.6 36.8599H145.946V74.5767H136.257V52.3867H135.947L127.349 74.3194H121.409L112.865 52.2314H112.555V74.5812H102.866V36.8599H115.212H115.207Z" fill="white"/>
<path d="M184.923 66.1878C183.335 69.1069 181.161 71.3205 178.397 72.8289C175.638 74.3416 172.528 75.0958 169.072 75.0958C165.616 75.0958 162.48 74.3416 159.707 72.8289C156.939 71.3161 154.757 69.1024 153.168 66.1878C151.58 63.2688 150.786 59.7819 150.786 55.7183C150.786 51.6547 151.58 48.1634 153.168 45.2488C154.757 42.3342 156.93 40.1161 159.694 38.6077C162.453 37.095 165.581 36.3408 169.072 36.3408C172.564 36.3408 175.638 37.095 178.397 38.6077C181.157 40.1205 183.335 42.3342 184.923 45.2488C186.511 48.1678 187.305 51.6547 187.305 55.7183C187.305 59.7819 186.511 63.2732 184.923 66.1878ZM175.026 47.7597C173.646 45.9098 171.663 44.987 169.072 44.987C166.482 44.987 164.472 45.9098 163.083 47.7597C161.695 49.6096 160.998 52.2625 160.998 55.7183C160.998 59.1741 161.69 61.827 163.083 63.6769C164.472 65.5268 166.468 66.4496 169.072 66.4496C171.676 66.4496 173.642 65.5268 175.026 63.6769C176.41 61.827 177.097 59.1741 177.097 55.7183C177.097 52.2625 176.405 49.6096 175.026 47.7597Z" fill="white"/>
<path d="M192.15 36.8599H208.195C210.99 36.8599 213.443 37.37 215.555 38.3948C217.667 39.4196 219.295 40.8924 220.439 42.8089C221.584 44.7297 222.161 46.9967 222.161 49.6185C222.161 52.2403 221.602 54.3919 220.479 56.2329C219.361 58.0739 217.764 59.4802 215.702 60.4518L223.412 74.5679H212.627L205.933 62.0133H202.051V74.5679H192.154V36.8599H192.15ZM205.902 54.2588C207.827 54.2588 209.291 53.8861 210.289 53.1409C211.287 52.3956 211.789 51.2244 211.789 49.6229C211.789 48.0214 211.283 46.7749 210.276 45.9763C209.269 45.1778 207.809 44.7785 205.902 44.7785H202.047V54.2588H205.902Z" fill="white"/>
<path d="M243.175 63.739H243.486L251.404 36.8599H262.606L250.104 74.5767H236.614L224.059 36.8599H235.261L243.18 63.739H243.175Z" fill="white"/>
<path d="M258.933 74.5767L271.487 36.8599H284.978L297.479 74.5767H286.801L284.534 67.1815H271.9L269.659 74.5767H258.928H258.933ZM282.245 59.6799L278.363 47.0233H278.053L274.198 59.6799H282.245Z" fill="white"/>
<path d="M87.4101 47.6221C88.6788 57.4395 88.5324 66.9153 84.5886 75.9963C80.7025 84.9353 73.6799 89.7885 64.1731 91.0484C57.745 91.9002 51.3346 91.7316 45.1061 89.549C37.9239 87.0336 33.3767 81.8832 30.5198 75.0336C27.4943 67.7981 27.2458 60.2077 27.6939 52.533C27.7516 51.5349 27.9379 50.5412 27.9068 49.5474C27.8004 45.7678 29.9919 43.5984 33.0617 42.0103C36.7438 40.1071 40.7231 39.1888 44.7778 38.5544C54.5287 37.0195 64.2751 37.0284 73.9328 39.1356C76.772 39.7567 79.4958 40.9722 82.2108 42.0679C83.0847 42.4228 83.9143 43.1593 84.4866 43.9267C85.5602 45.3596 84.6907 47.2761 82.9295 47.5911C82.6456 47.6399 82.1886 47.5511 82.0289 47.3515C80.3609 45.2576 77.9387 44.4413 75.5387 43.8912C63.2858 41.1008 51.0285 40.9234 38.8466 44.3437C37.4314 44.743 36.0429 45.4262 34.8052 46.2247C32.8932 47.4668 32.8 49.37 34.8141 50.3548C37.7819 51.8055 40.9139 53.1275 44.1213 53.8506C52.1553 55.665 60.3224 56.0377 68.5117 54.9153C75.2681 53.9881 81.5942 51.8942 87.4101 47.6132V47.6221ZM44.9642 84.7712C39.9379 76.5508 37.7686 67.461 36.4466 57.9497C36.2292 58.2025 36.0784 58.2957 36.0518 58.4155C34.8185 64.3512 34.3882 70.2691 36.6595 76.0806C38.2211 80.0776 40.7364 83.2096 44.9597 84.7756L44.9642 84.7712Z" fill="white"/>
<path d="M63.583 35.449C59.7102 32.9159 58.4769 29.1407 60.3845 25.3344C61.5379 23.0364 63.0994 20.9381 64.5235 18.7776C65.8233 16.7991 67.0211 14.7761 67.0876 12.3406C67.1231 11.0231 66.9057 9.69665 66.8081 8.46338C70.051 9.94508 71.7412 14.8116 70.1043 18.72C69.5719 19.9887 68.7601 21.151 67.9971 22.3089C67.5623 22.9699 66.9989 23.5555 66.4355 24.1189C63.3035 27.2641 61.4713 30.7599 63.5874 35.449H63.583Z" fill="white"/>
<path d="M66.928 29.784C67.3672 28.6616 67.6999 27.4772 68.2811 26.4391C68.809 25.4986 69.5898 24.6912 70.304 23.8661C72.3447 21.5149 73.8397 18.9463 73.64 15.5703C75.5476 17.3892 76.0267 20.5611 74.7358 22.6195C74.2123 23.4535 73.5558 24.2298 72.8371 24.9042C71.0094 26.6121 69.1106 28.2402 67.243 29.9038C67.1365 29.8639 67.0301 29.8239 66.9236 29.7885L66.928 29.784Z" fill="white"/>
</g>
<path d="M64.0977 116.273L68.123 126.135H68.2812L72.3066 116.273H74.6621V129H72.8164V119.807H72.6934L68.9668 128.982H67.4375L63.6934 119.789H63.5879V129H61.7422V116.273H64.0977ZM81.1484 129.193C80.2578 129.193 79.4756 128.988 78.8018 128.578C78.1279 128.168 77.6064 127.594 77.2373 126.855C76.8682 126.111 76.6836 125.25 76.6836 124.271C76.6836 123.287 76.8682 122.423 77.2373 121.679C77.6064 120.935 78.1279 120.357 78.8018 119.947C79.4756 119.537 80.2578 119.332 81.1484 119.332C82.0332 119.332 82.8125 119.537 83.4863 119.947C84.1602 120.357 84.6787 120.938 85.042 121.688C85.4111 122.432 85.5957 123.293 85.5957 124.271C85.5957 125.25 85.4111 126.111 85.042 126.855C84.6787 127.594 84.1602 128.168 83.4863 128.578C82.8125 128.988 82.0332 129.193 81.1484 129.193ZM81.1484 127.629C81.7051 127.629 82.1738 127.479 82.5547 127.181C82.9355 126.882 83.2197 126.48 83.4072 125.977C83.6006 125.467 83.6973 124.898 83.6973 124.271C83.6973 123.645 83.6006 123.076 83.4072 122.566C83.2197 122.051 82.9326 121.641 82.5459 121.336C82.165 121.031 81.6992 120.879 81.1484 120.879C80.5859 120.879 80.1084 121.031 79.7158 121.336C79.3291 121.641 79.0391 122.051 78.8457 122.566C78.6582 123.076 78.5645 123.645 78.5645 124.271C78.5645 124.898 78.6582 125.467 78.8457 125.977C79.0391 126.48 79.3291 126.882 79.7158 127.181C80.1084 127.479 80.5859 127.629 81.1484 127.629ZM87.4414 119.455H89.252V120.967H89.3574C89.5332 120.457 89.8408 120.056 90.2803 119.763C90.7197 119.464 91.2207 119.314 91.7832 119.314C92.0527 119.314 92.3164 119.326 92.5742 119.35V121.143C92.4688 121.119 92.3193 121.096 92.126 121.072C91.9385 121.049 91.7598 121.037 91.5898 121.037C91.1621 121.037 90.7754 121.131 90.4297 121.318C90.084 121.5 89.8115 121.755 89.6123 122.083C89.4189 122.405 89.3223 122.771 89.3223 123.182V129H87.4414V119.455ZM97.7773 129.193C96.8516 129.193 96.0459 128.991 95.3604 128.587C94.6807 128.183 94.1562 127.611 93.7871 126.873C93.4238 126.135 93.2422 125.273 93.2422 124.289C93.2422 123.316 93.4238 122.455 93.7871 121.705C94.1562 120.955 94.6748 120.372 95.3428 119.956C96.0107 119.54 96.7812 119.332 97.6543 119.332C98.4219 119.332 99.125 119.499 99.7637 119.833C100.402 120.167 100.915 120.694 101.302 121.415C101.694 122.13 101.891 123.035 101.891 124.131V124.799H95.1055C95.123 125.391 95.2432 125.903 95.4658 126.337C95.6943 126.765 96.0078 127.09 96.4062 127.312C96.8047 127.535 97.2676 127.646 97.7949 127.646C98.3047 127.646 98.7354 127.553 99.0869 127.365C99.4385 127.172 99.6992 126.92 99.8691 126.609H101.768C101.627 127.125 101.375 127.579 101.012 127.972C100.648 128.358 100.188 128.66 99.6318 128.877C99.0811 129.088 98.4629 129.193 97.7773 129.193ZM100.045 123.393C100.045 122.906 99.9453 122.473 99.7461 122.092C99.5527 121.711 99.2773 121.415 98.9199 121.204C98.5625 120.987 98.1465 120.879 97.6719 120.879C97.1855 120.879 96.752 120.993 96.3711 121.222C95.9961 121.444 95.7002 121.749 95.4834 122.136C95.2666 122.517 95.1436 122.936 95.1143 123.393H100.045ZM112.965 126.627H113.105L116.639 116.273H118.73L114.143 129H111.91L107.34 116.273H109.432L112.965 126.627ZM118.801 126.311C118.801 125.32 119.135 124.614 119.803 124.192C120.471 123.771 121.326 123.521 122.369 123.445C122.768 123.416 123.201 123.39 123.67 123.366C124.145 123.337 124.546 123.316 124.874 123.305L124.865 122.549C124.865 122.004 124.701 121.585 124.373 121.292C124.045 120.993 123.564 120.844 122.932 120.844C122.398 120.844 121.962 120.955 121.622 121.178C121.282 121.395 121.062 121.688 120.963 122.057H119.1C119.158 121.529 119.354 121.061 119.688 120.65C120.022 120.234 120.474 119.912 121.042 119.684C121.616 119.449 122.27 119.332 123.002 119.332C123.605 119.332 124.186 119.426 124.742 119.613C125.305 119.801 125.779 120.141 126.166 120.633C126.553 121.125 126.746 121.799 126.746 122.654V129H124.918V127.699H124.848C124.631 128.121 124.285 128.479 123.811 128.771C123.342 129.064 122.744 129.211 122.018 129.211C121.408 129.211 120.86 129.097 120.374 128.868C119.888 128.64 119.504 128.309 119.223 127.875C118.941 127.436 118.801 126.914 118.801 126.311ZM120.629 126.328C120.629 126.773 120.793 127.116 121.121 127.356C121.455 127.597 121.895 127.717 122.439 127.717C122.932 127.717 123.362 127.62 123.731 127.427C124.101 127.228 124.385 126.964 124.584 126.636C124.783 126.302 124.883 125.941 124.883 125.555L124.874 124.685L122.633 124.834C121.994 124.881 121.499 125.027 121.147 125.273C120.802 125.514 120.629 125.865 120.629 126.328ZM130.895 129H129.014V116.273H130.895V129ZM139.244 119.455H141.107V129H139.279V127.348H139.174C138.945 127.881 138.585 128.312 138.093 128.64C137.601 128.962 137.012 129.123 136.326 129.123C135.705 129.123 135.157 128.985 134.683 128.71C134.208 128.435 133.839 128.027 133.575 127.488C133.312 126.949 133.18 126.293 133.18 125.52V119.455H135.061V125.291C135.061 125.719 135.143 126.094 135.307 126.416C135.471 126.738 135.696 126.987 135.983 127.163C136.276 127.333 136.613 127.418 136.994 127.418C137.357 127.418 137.712 127.33 138.058 127.154C138.403 126.973 138.688 126.703 138.91 126.346C139.133 125.982 139.244 125.543 139.244 125.027V119.455ZM147.506 129.193C146.58 129.193 145.774 128.991 145.089 128.587C144.409 128.183 143.885 127.611 143.516 126.873C143.152 126.135 142.971 125.273 142.971 124.289C142.971 123.316 143.152 122.455 143.516 121.705C143.885 120.955 144.403 120.372 145.071 119.956C145.739 119.54 146.51 119.332 147.383 119.332C148.15 119.332 148.854 119.499 149.492 119.833C150.131 120.167 150.644 120.694 151.03 121.415C151.423 122.13 151.619 123.035 151.619 124.131V124.799H144.834C144.852 125.391 144.972 125.903 145.194 126.337C145.423 126.765 145.736 127.09 146.135 127.312C146.533 127.535 146.996 127.646 147.523 127.646C148.033 127.646 148.464 127.553 148.815 127.365C149.167 127.172 149.428 126.92 149.598 126.609H151.496C151.355 127.125 151.104 127.579 150.74 127.972C150.377 128.358 149.917 128.66 149.36 128.877C148.81 129.088 148.191 129.193 147.506 129.193ZM149.773 123.393C149.773 122.906 149.674 122.473 149.475 122.092C149.281 121.711 149.006 121.415 148.648 121.204C148.291 120.987 147.875 120.879 147.4 120.879C146.914 120.879 146.48 120.993 146.1 121.222C145.725 121.444 145.429 121.749 145.212 122.136C144.995 122.517 144.872 122.936 144.843 123.393H149.773ZM157.877 119.455H159.758V129H157.877V119.455ZM158.826 117.979C158.615 117.979 158.416 117.929 158.229 117.829C158.047 117.729 157.9 117.595 157.789 117.425C157.684 117.255 157.631 117.07 157.631 116.871C157.631 116.672 157.684 116.487 157.789 116.317C157.9 116.147 158.047 116.013 158.229 115.913C158.416 115.813 158.615 115.764 158.826 115.764C159.037 115.764 159.23 115.813 159.406 115.913C159.588 116.013 159.731 116.147 159.837 116.317C159.948 116.487 160.004 116.672 160.004 116.871C160.004 117.07 159.948 117.255 159.837 117.425C159.731 117.595 159.588 117.729 159.406 117.829C159.23 117.929 159.037 117.979 158.826 117.979ZM163.924 129H162.043V119.455H163.854V121.02H163.959C164.193 120.492 164.548 120.079 165.022 119.78C165.497 119.481 166.08 119.332 166.771 119.332C167.434 119.332 168.008 119.47 168.494 119.745C168.98 120.015 169.355 120.419 169.619 120.958C169.889 121.497 170.023 122.156 170.023 122.936V129H168.16V123.164C168.16 122.473 167.981 121.931 167.624 121.538C167.267 121.146 166.771 120.949 166.139 120.949C165.711 120.949 165.327 121.043 164.987 121.23C164.653 121.418 164.393 121.693 164.205 122.057C164.018 122.414 163.924 122.842 163.924 123.34V129ZM176.861 116.273H184.842V117.943H178.795V121.793H184.42V123.445H178.795V127.33H184.912V129H176.861V116.273ZM191.785 129H189.764L186.301 119.455H188.322L190.73 126.785H190.818L193.227 119.455H195.248L191.785 129ZM200.557 129.193C199.631 129.193 198.825 128.991 198.14 128.587C197.46 128.183 196.936 127.611 196.566 126.873C196.203 126.135 196.021 125.273 196.021 124.289C196.021 123.316 196.203 122.455 196.566 121.705C196.936 120.955 197.454 120.372 198.122 119.956C198.79 119.54 199.561 119.332 200.434 119.332C201.201 119.332 201.904 119.499 202.543 119.833C203.182 120.167 203.694 120.694 204.081 121.415C204.474 122.13 204.67 123.035 204.67 124.131V124.799H197.885C197.902 125.391 198.022 125.903 198.245 126.337C198.474 126.765 198.787 127.09 199.186 127.312C199.584 127.535 200.047 127.646 200.574 127.646C201.084 127.646 201.515 127.553 201.866 127.365C202.218 127.172 202.479 126.92 202.648 126.609H204.547C204.406 127.125 204.154 127.579 203.791 127.972C203.428 128.358 202.968 128.66 202.411 128.877C201.86 129.088 201.242 129.193 200.557 129.193ZM202.824 123.393C202.824 122.906 202.725 122.473 202.525 122.092C202.332 121.711 202.057 121.415 201.699 121.204C201.342 120.987 200.926 120.879 200.451 120.879C199.965 120.879 199.531 120.993 199.15 121.222C198.775 121.444 198.479 121.749 198.263 122.136C198.046 122.517 197.923 122.936 197.894 123.393H202.824ZM206.533 119.455H208.344V120.967H208.449C208.625 120.457 208.933 120.056 209.372 119.763C209.812 119.464 210.312 119.314 210.875 119.314C211.145 119.314 211.408 119.326 211.666 119.35V121.143C211.561 121.119 211.411 121.096 211.218 121.072C211.03 121.049 210.852 121.037 210.682 121.037C210.254 121.037 209.867 121.131 209.521 121.318C209.176 121.5 208.903 121.755 208.704 122.083C208.511 122.405 208.414 122.771 208.414 123.182V129H206.533V119.455ZM214.531 132.586C214.109 132.586 213.775 132.568 213.529 132.533V130.969C213.811 130.992 214.092 131.004 214.373 131.004C214.613 131.004 214.812 130.98 214.971 130.934C215.129 130.887 215.284 130.772 215.437 130.591C215.595 130.409 215.744 130.131 215.885 129.756L216.113 129.123L212.615 119.455H214.619L217.027 126.855H217.133L219.541 119.455H221.562L217.625 130.266C217.35 131.033 216.957 131.61 216.447 131.997C215.943 132.39 215.305 132.586 214.531 132.586ZM236.258 120.422C236.152 119.889 235.944 119.432 235.634 119.051C235.323 118.664 234.937 118.371 234.474 118.172C234.017 117.973 233.516 117.873 232.971 117.873C232.232 117.873 231.573 118.061 230.993 118.436C230.413 118.805 229.959 119.347 229.631 120.062C229.303 120.776 229.139 121.635 229.139 122.637C229.139 123.639 229.303 124.5 229.631 125.221C229.965 125.936 230.419 126.478 230.993 126.847C231.573 127.216 232.232 127.4 232.971 127.4C233.51 127.4 234.008 127.304 234.465 127.11C234.922 126.911 235.306 126.624 235.616 126.249C235.933 125.868 236.146 125.414 236.258 124.887L238.209 124.904C238.074 125.736 237.767 126.478 237.286 127.128C236.812 127.772 236.199 128.276 235.449 128.64C234.705 128.997 233.873 129.176 232.953 129.176C231.846 129.176 230.858 128.912 229.991 128.385C229.124 127.857 228.444 127.102 227.952 126.117C227.466 125.127 227.223 123.967 227.223 122.637C227.223 121.307 227.469 120.149 227.961 119.165C228.453 118.175 229.133 117.416 230 116.889C230.867 116.361 231.852 116.098 232.953 116.098C233.85 116.098 234.67 116.271 235.414 116.616C236.158 116.956 236.773 117.451 237.26 118.102C237.746 118.752 238.062 119.525 238.209 120.422H236.258ZM246.207 119.455H248.07V129H246.242V127.348H246.137C245.908 127.881 245.548 128.312 245.056 128.64C244.563 128.962 243.975 129.123 243.289 129.123C242.668 129.123 242.12 128.985 241.646 128.71C241.171 128.435 240.802 128.027 240.538 127.488C240.274 126.949 240.143 126.293 240.143 125.52V119.455H242.023V125.291C242.023 125.719 242.105 126.094 242.27 126.416C242.434 126.738 242.659 126.987 242.946 127.163C243.239 127.333 243.576 127.418 243.957 127.418C244.32 127.418 244.675 127.33 245.021 127.154C245.366 126.973 245.65 126.703 245.873 126.346C246.096 125.982 246.207 125.543 246.207 125.027V119.455ZM250.355 119.455H252.184V121.002H252.342C252.5 120.715 252.679 120.454 252.878 120.22C253.077 119.985 253.358 119.78 253.722 119.604C254.091 119.423 254.545 119.332 255.084 119.332C255.857 119.332 256.546 119.528 257.149 119.921C257.759 120.313 258.233 120.882 258.573 121.626C258.919 122.364 259.092 123.24 259.092 124.254C259.092 125.262 258.922 126.138 258.582 126.882C258.242 127.626 257.771 128.197 257.167 128.596C256.563 128.994 255.875 129.193 255.102 129.193C254.34 129.193 253.751 129.029 253.335 128.701C252.919 128.367 252.588 127.969 252.342 127.506H252.236V132.586H250.355V119.455ZM252.201 124.219C252.201 124.893 252.298 125.484 252.491 125.994C252.685 126.498 252.966 126.891 253.335 127.172C253.71 127.453 254.158 127.594 254.68 127.594C255.213 127.594 255.667 127.45 256.042 127.163C256.423 126.87 256.71 126.469 256.903 125.959C257.097 125.449 257.193 124.869 257.193 124.219C257.193 123.58 257.097 123.015 256.903 122.522C256.716 122.024 256.432 121.635 256.051 121.354C255.676 121.072 255.219 120.932 254.68 120.932C253.883 120.932 253.271 121.228 252.843 121.819C252.415 122.405 252.201 123.205 252.201 124.219ZM262.186 129.123C261.963 129.123 261.752 129.067 261.553 128.956C261.359 128.845 261.207 128.692 261.096 128.499C260.984 128.306 260.932 128.098 260.938 127.875C260.932 127.652 260.984 127.444 261.096 127.251C261.207 127.058 261.359 126.905 261.553 126.794C261.752 126.683 261.963 126.627 262.186 126.627C262.402 126.627 262.607 126.683 262.801 126.794C262.994 126.905 263.146 127.058 263.258 127.251C263.375 127.444 263.434 127.652 263.434 127.875C263.434 128.098 263.375 128.306 263.258 128.499C263.146 128.692 262.994 128.845 262.801 128.956C262.607 129.067 262.402 129.123 262.186 129.123Z" fill="white"/>
<defs>
<clipPath id="clip0_550_281">
<rect width="269.958" height="83.0641" fill="white" transform="translate(27.5209 8.46777)"/>
</clipPath>
</defs>
</svg>
