<svg width="109" height="100" viewBox="0 0 109 100" fill="none" xmlns="http://www.w3.org/2000/svg">
<g clip-path="url(#clip0_433_805)">
<path d="M18.0394 71.8881L21.885 81.3095H22.0868L25.9324 71.8881H31.2305V88.0897H27.0727V78.5578H26.9375L23.2481 87.9792H20.6989L17.0323 78.4911H16.8991V88.0916H12.7413V71.89H18.0394V71.8881Z" fill="#2C6A54"/>
<path d="M47.955 84.4862C47.2734 85.7401 46.3406 86.691 45.1545 87.3389C43.9704 87.9887 42.6359 88.3127 41.1529 88.3127C39.6698 88.3127 38.3239 87.9887 37.134 87.3389C35.9442 86.6891 35.0095 85.7382 34.3279 84.4862C33.6464 83.2323 33.3056 81.7344 33.3056 79.9889C33.3056 78.2433 33.6464 76.7436 34.3279 75.4916C35.0095 74.2377 35.9423 73.2868 37.1283 72.6389C38.3144 71.991 39.6546 71.6651 41.1529 71.6651C42.6511 71.6651 43.9704 71.9891 45.1545 72.6389C46.3387 73.2887 47.2734 74.2396 47.955 75.4916C48.6365 76.7455 48.9773 78.2433 48.9773 79.9889C48.9773 81.7344 48.6365 83.2342 47.955 84.4862ZM43.7077 76.5702C43.1156 75.7755 42.2647 75.3792 41.1529 75.3792C40.0411 75.3792 39.1787 75.7755 38.5828 76.5702C37.9869 77.3648 37.688 78.5044 37.688 79.9889C37.688 81.4734 37.9869 82.6129 38.5828 83.4076C39.1787 84.2022 40.0354 84.5986 41.1529 84.5986C42.2704 84.5986 43.1137 84.2022 43.7077 83.4076C44.2998 82.6129 44.5967 81.4734 44.5967 79.9889C44.5967 78.5044 44.2998 77.3648 43.7077 76.5702Z" fill="#2C6A54"/>
<path d="M51.058 71.8881H57.9439C59.1433 71.8881 60.196 72.1072 61.1022 72.5474C62.0084 72.9876 62.7071 73.6203 63.1983 74.4435C63.6894 75.2687 63.9369 76.2425 63.9369 77.3687C63.9369 78.4949 63.697 79.4191 63.2154 80.21C62.7356 81.0008 62.0503 81.6049 61.1651 82.0222L64.4738 88.0859H59.8457L56.973 82.693H55.3072V88.0859H51.0599V71.8843L51.058 71.8881ZM56.9597 79.362C57.7859 79.362 58.4141 79.2019 58.8425 78.8818C59.2708 78.5616 59.4859 78.0566 59.4859 77.3706C59.4859 76.6846 59.2689 76.1472 58.8368 75.8042C58.4046 75.4611 57.7783 75.2896 56.9597 75.2896H55.3053V79.362H56.9597Z" fill="#2C6A54"/>
<path d="M72.9531 83.4343H73.0882L76.4864 71.8881H81.2934L75.9286 88.0897H70.1393L64.7517 71.8881H69.5587L72.9569 83.4343H72.9531Z" fill="#2C6A54"/>
<path d="M79.7171 88.0878L85.1047 71.8862H90.894L96.2588 88.0878H91.6765L90.7037 84.9111H85.2818L84.3204 88.0878H79.7152H79.7171ZM89.7213 81.6887L88.0555 76.252H87.9223L86.2679 81.6887H89.7213Z" fill="#2C6A54"/>
<path d="M73.4004 36.6015C74.2076 42.8482 74.1143 48.8757 71.6052 54.6555C69.136 60.3438 64.6717 63.4309 58.6273 64.2332C54.5419 64.7744 50.466 64.6677 46.51 63.2785C41.9448 61.6758 39.0549 58.4 37.2387 54.0419C35.3178 49.436 35.1579 44.6071 35.4435 39.723C35.4796 39.0884 35.5977 38.4557 35.5805 37.8249C35.512 35.4181 36.9055 34.0404 38.8569 33.0304C41.1985 31.8203 43.7267 31.2372 46.3044 30.8313C52.503 29.8556 58.6978 29.8613 64.8374 31.201C66.6421 31.5954 68.3745 32.3691 70.0993 33.0685C70.6552 33.2934 71.1826 33.7621 71.5481 34.25C72.2296 35.1628 71.6794 36.3805 70.5581 36.5806C70.3773 36.613 70.0879 36.5558 69.987 36.43C68.9247 35.0961 67.3865 34.5778 65.8616 34.229C58.0733 32.4549 50.2813 32.3405 42.5387 34.5168C41.6383 34.7702 40.7568 35.2047 39.9706 35.7154C38.7541 36.5043 38.6951 37.7182 39.9763 38.3433C41.8648 39.2656 43.8523 40.106 45.8912 40.5672C50.999 41.7201 56.1886 41.9602 61.3935 41.2456C65.6883 40.6567 69.7091 39.3247 73.4042 36.6015H73.4004ZM46.4186 60.2352C43.2241 55.0061 41.8439 49.2206 41.0062 43.1683C40.8672 43.3303 40.7721 43.3894 40.7568 43.4637C39.9744 47.2407 39.7003 51.0062 41.1433 54.7031C42.137 57.2452 43.7343 59.2404 46.4205 60.2352H46.4186Z" fill="#2C6A54"/>
<path d="M58.2523 28.857C55.7926 27.2449 55.0064 24.8438 56.2191 22.4217C56.952 20.9582 57.9458 19.6243 58.8481 18.2503C59.6744 16.9926 60.4359 15.7025 60.4777 14.1551C60.5006 13.3166 60.3616 12.4724 60.2988 11.6892C62.3605 12.6325 63.4343 15.7291 62.3948 18.2141C62.0559 19.0221 61.5419 19.7615 61.0565 20.4989C60.7804 20.9182 60.4206 21.2917 60.0646 21.6499C58.0752 23.6508 56.9082 25.8747 58.2542 28.857H58.2523Z" fill="#E0C172"/>
<path d="M60.3807 25.2497C60.6605 24.5351 60.8699 23.7824 61.2412 23.1211C61.5762 22.5227 62.0731 22.0082 62.5281 21.4823C63.8246 19.9863 64.7764 18.3513 64.6489 16.2037C65.8616 17.3604 66.1662 19.3785 65.3457 20.6895C65.0144 21.2193 64.5956 21.7148 64.1387 22.1416C62.9774 23.2278 61.7704 24.2645 60.5825 25.3221C60.5158 25.2973 60.4473 25.2726 60.3807 25.2478V25.2497Z" fill="#2C6A54"/>
</g>
<defs>
<clipPath id="clip0_433_805">
<rect width="83.5175" height="76.6216" fill="white" transform="translate(12.7413 11.6892)"/>
</clipPath>
</defs>
</svg>
