<svg width="24" height="24" viewBox="0 0 24 24" fill="none" xmlns="http://www.w3.org/2000/svg">
<path d="M12.0047 6.6094C9.02341 6.6094 6.61873 9.01409 6.61873 11.9953C6.61873 14.9766 9.02341 17.3813 12.0047 17.3813C14.9859 17.3813 17.3906 14.9766 17.3906 11.9953C17.3906 9.01409 14.9859 6.6094 12.0047 6.6094ZM12.0047 15.4969C10.0781 15.4969 8.5031 13.9266 8.5031 11.9953C8.5031 10.0641 10.0734 8.49377 12.0047 8.49377C13.9359 8.49377 15.5062 10.0641 15.5062 11.9953C15.5062 13.9266 13.9312 15.4969 12.0047 15.4969ZM18.8672 6.38909C18.8672 7.08752 18.3047 7.64534 17.6109 7.64534C16.9125 7.64534 16.3547 7.08284 16.3547 6.38909C16.3547 5.69534 16.9172 5.13284 17.6109 5.13284C18.3047 5.13284 18.8672 5.69534 18.8672 6.38909ZM22.4344 7.66409C22.3547 5.98127 21.9703 4.49065 20.7375 3.26252C19.5094 2.0344 18.0187 1.65002 16.3359 1.56565C14.6015 1.46721 9.4031 1.46721 7.66873 1.56565C5.9906 1.64534 4.49998 2.02971 3.26716 3.25784C2.03435 4.48596 1.65466 5.97659 1.57029 7.6594C1.47185 9.39377 1.47185 14.5922 1.57029 16.3266C1.64998 18.0094 2.03435 19.5 3.26716 20.7281C4.49998 21.9563 5.98591 22.3406 7.66873 22.425C9.4031 22.5235 14.6015 22.5235 16.3359 22.425C18.0187 22.3453 19.5094 21.961 20.7375 20.7281C21.9656 19.5 22.35 18.0094 22.4344 16.3266C22.5328 14.5922 22.5328 9.39846 22.4344 7.66409ZM20.1937 18.1875C19.8281 19.1063 19.1203 19.8141 18.1969 20.1844C16.814 20.7328 13.5328 20.6063 12.0047 20.6063C10.4765 20.6063 7.1906 20.7281 5.81248 20.1844C4.89373 19.8188 4.18591 19.111 3.8156 18.1875C3.26716 16.8047 3.39373 13.5235 3.39373 11.9953C3.39373 10.4672 3.27185 7.18127 3.8156 5.80315C4.18123 4.8844 4.88904 4.17659 5.81248 3.80627C7.19529 3.25784 10.4765 3.3844 12.0047 3.3844C13.5328 3.3844 16.8187 3.26252 18.1969 3.80627C19.1156 4.1719 19.8234 4.87971 20.1937 5.80315C20.7422 7.18596 20.6156 10.4672 20.6156 11.9953C20.6156 13.5235 20.7422 16.8094 20.1937 18.1875Z" fill="black"/>
</svg>
